<svg width="46" height="47" viewBox="0 0 46 47" fill="none" xmlns="http://www.w3.org/2000/svg">
<path d="M22.999 0.00170898C10.3083 0.00170898 -0.000976562 10.311 -0.000976562 23.0017C-0.000976562 35.6924 10.3083 46.0017 22.999 46.0017C35.6897 46.0017 45.999 35.6924 45.999 23.0017C45.999 10.311 35.6897 0.00170898 22.999 0.00170898ZM22.999 2.00171C34.6088 2.00171 43.999 11.3919 43.999 23.0017C43.999 34.6115 34.6088 44.0017 22.999 44.0017C11.3892 44.0017 1.99902 34.6115 1.99902 23.0017C1.99902 11.3919 11.3892 2.00171 22.999 2.00171ZM28.6924 12.0603C25.0921 12.0603 22.1514 14.9999 22.1514 18.5994C22.1514 18.6247 22.1589 18.6483 22.1592 18.6736C18.3451 18.166 14.9711 16.2831 12.6533 13.4412C12.5511 13.316 12.4202 13.2175 12.2716 13.154C12.123 13.0906 11.9613 13.064 11.8002 13.0767C11.6392 13.0894 11.4836 13.1409 11.3468 13.2268C11.21 13.3127 11.096 13.4305 11.0146 13.5701C10.4518 14.5377 10.1299 15.6655 10.1299 16.8591C10.1299 17.9213 10.4258 18.908 10.8779 19.7986C10.6539 19.846 10.453 19.9688 10.3087 20.1466C10.1644 20.3243 10.0854 20.5462 10.085 20.7751V20.8455C10.085 22.7795 10.99 24.4545 12.3311 25.6541C12.1962 25.7836 12.1004 25.9483 12.0545 26.1296C12.0086 26.3108 12.0144 26.5013 12.0713 26.6794C12.6297 28.4164 13.9314 29.7762 15.5615 30.5427C14.2574 31.1527 12.8601 31.5896 11.3193 31.5896C10.9085 31.5896 10.5092 31.5662 10.1182 31.5193C9.89312 31.492 9.6655 31.542 9.47261 31.6611C9.27971 31.7802 9.13299 31.9612 9.05649 32.1746C8.97999 32.388 8.97825 32.621 9.05155 32.8356C9.12486 33.0501 9.26887 33.2333 9.45996 33.3552C12.0644 35.0263 15.1658 36.0017 18.4893 36.0017C23.8599 36.0017 28.1049 33.7456 30.9424 30.5271C33.7798 27.3086 35.2529 23.1548 35.2529 19.2419C35.2529 19.1244 35.2475 19.012 35.2451 18.8962C36.219 18.1144 37.1348 17.2522 37.8291 16.2126C37.9438 16.041 38.0026 15.838 37.9973 15.6317C37.9921 15.4253 37.9231 15.2256 37.7999 15.0599C37.6766 14.8943 37.5051 14.7709 37.3089 14.7066C37.1127 14.6423 36.9015 14.6403 36.7041 14.7009C36.8657 14.3863 37.0945 14.1132 37.2041 13.7712C37.2659 13.5782 37.2675 13.3709 37.2088 13.1769C37.1501 12.9829 37.0339 12.8112 36.8754 12.6848C36.717 12.5583 36.5239 12.483 36.3217 12.4688C36.1195 12.4546 35.9177 12.5022 35.7432 12.6052C34.8686 13.1234 33.8859 13.4651 32.8682 13.7029C31.7248 12.7287 30.3043 12.0603 28.6924 12.0603ZM28.6924 14.0603C30.0046 14.0603 31.1773 14.6087 32.0049 15.4919C32.1206 15.6158 32.2659 15.7082 32.4272 15.7605C32.5885 15.8127 32.7604 15.8232 32.9268 15.7908C33.0787 15.7609 33.2007 15.6642 33.3506 15.6287C33.332 15.6402 33.3205 15.6604 33.3018 15.6716C33.1132 15.7848 32.9672 15.957 32.8864 16.1616C32.8056 16.3661 32.7945 16.5916 32.8547 16.8031C32.915 17.0147 33.0433 17.2004 33.2198 17.3316C33.3963 17.4629 33.6111 17.5322 33.8311 17.5291C33.7624 17.5814 33.7214 17.664 33.6514 17.7146C33.5171 17.8115 33.409 17.9402 33.3367 18.0891C33.2644 18.2381 33.2303 18.4027 33.2373 18.5681C33.2468 18.7924 33.2529 19.0175 33.2529 19.2419C33.2529 22.6471 31.9387 26.3733 29.4424 29.2048C26.9461 32.0364 23.3076 34.0017 18.4893 34.0017C16.8361 34.0017 15.2807 33.6714 13.7998 33.1697C15.6421 32.7793 17.3863 32.1269 18.8154 31.0056C18.9772 30.8781 19.0956 30.7037 19.1545 30.5063C19.2134 30.3089 19.2099 30.0982 19.1445 29.9028C19.0791 29.7075 18.955 29.5371 18.7891 29.415C18.6232 29.2929 18.4237 29.2249 18.2178 29.2205C16.8021 29.1947 15.7118 28.3941 14.8975 27.3611C15.1966 27.3224 15.5061 27.321 15.792 27.2419C16.0092 27.1824 16.2 27.0514 16.3334 26.8699C16.4669 26.6885 16.5352 26.4673 16.5273 26.2422C16.5194 26.0172 16.4357 25.8013 16.2899 25.6297C16.144 25.4581 15.9445 25.3407 15.7236 25.2966C14.0722 24.9633 12.784 23.7247 12.3115 22.1228C12.7368 22.2252 13.1095 22.4541 13.5615 22.4685C13.7784 22.4751 13.9916 22.4111 14.1689 22.2859C14.3462 22.1608 14.4779 21.9814 14.5443 21.7747C14.6107 21.5681 14.6081 21.3456 14.5368 21.1406C14.4656 20.9356 14.3296 20.7593 14.1494 20.6384C12.9297 19.8228 12.1299 18.4414 12.1299 16.8591C12.1299 16.5321 12.3054 16.2722 12.3701 15.9666C15.2106 18.7784 18.9909 20.6446 23.2471 20.8591C23.402 20.8669 23.5565 20.8385 23.6986 20.7763C23.8406 20.714 23.9663 20.6196 24.0655 20.5004C24.1648 20.3813 24.235 20.2406 24.2706 20.0897C24.3061 19.9387 24.3061 19.7816 24.2705 19.6306C24.1927 19.3015 24.1514 18.9581 24.1514 18.5994C24.1514 16.0808 26.1727 14.0603 28.6924 14.0603Z" fill="white"/>
</svg>
