<svg width="46" height="46" viewBox="0 0 46 46" fill="none" xmlns="http://www.w3.org/2000/svg">
<path d="M23 0.000732422C10.3093 0.000732422 0 10.31 0 23.0007C0 35.6914 10.3093 46.0007 23 46.0007C35.6907 46.0007 46 35.6914 46 23.0007C46 10.31 35.6907 0.000732422 23 0.000732422ZM23 2.00073C34.6098 2.00073 44 11.3909 44 23.0007C44 34.6105 34.6098 44.0007 23 44.0007C11.3902 44.0007 2 34.6105 2 23.0007C2 11.3909 11.3902 2.00073 23 2.00073ZM13.002 16.0007L8.96679 16.0027C8.96679 16.0027 8.7359 15.9897 8.45703 16.0261C8.17816 16.0626 7.76619 16.0795 7.34375 16.5574L7.34179 16.5593L7.33984 16.5613C6.96408 16.991 6.97842 17.4911 7.02539 17.7664C7.07219 18.0406 7.17696 18.2453 7.17773 18.2468V18.2488C7.21653 18.344 10.1464 25.5227 13.8398 29.3796C16.4451 32.102 19.2314 33.0007 21.7129 33.0007H23C23.4235 33.0007 23.8016 32.9815 24.2207 32.7644C24.6397 32.5473 25 31.9483 25 31.4831C25 30.982 25.0123 30.4961 25.0762 30.2253C25.1358 29.9724 25.1128 30.0345 25.1367 30.0339C25.1607 30.0391 25.2043 30.0492 25.2871 30.0867C25.4655 30.1673 25.7411 30.3474 26.0469 30.5847C26.6574 31.0587 27.3805 31.7463 28.1914 32.2781C29.3528 33.0478 30.6133 33.0007 30.6133 33.0007H34.7695L34.8144 32.9968C34.8144 32.9968 35.4522 32.9823 36.1074 32.5808C36.435 32.38 36.8244 32.0118 36.9551 31.4597C37.0858 30.9077 36.9189 30.3285 36.5976 29.8191C36.4803 29.6322 35.9106 28.8066 33.6367 26.7878C33.0492 26.2668 32.6486 25.898 32.4902 25.7019C32.434 25.6323 32.4293 25.639 32.418 25.6355C32.4312 25.6013 32.5626 25.3246 32.9141 24.8679C33.2804 24.3919 33.837 23.7287 34.5527 22.8171C35.465 21.6549 36.105 20.5374 36.5078 19.5945C36.7092 19.123 36.852 18.6952 36.9375 18.3074C37.023 17.9196 37.0913 17.5972 36.9648 17.1374C36.8705 16.7952 36.6144 16.4887 36.3633 16.3269C36.1122 16.1651 35.8781 16.1042 35.668 16.0652C35.2477 15.9872 34.8769 16.0007 34.5312 16.0007C33.8074 16.0007 30.5898 16.0261 30.3242 16.0261C30.0125 16.0261 29.5152 16.1559 29.2851 16.2878C28.7139 16.615 28.5351 17.0632 28.5351 17.0632L28.4805 17.1589L28.4492 17.2664C28.4492 17.2664 27.7165 19.6366 26.9629 20.8581H26.9609C26.0747 22.2973 25.4137 22.8681 25.123 23.03C25.0922 23.0472 25.1093 23.0381 25.0879 23.0496C25.0651 22.9833 25.0365 22.8922 25.0176 22.7234C24.9751 22.3432 25 21.8077 25 21.2898C25 19.8554 25.1077 18.9609 24.9883 18.114C24.9286 17.6906 24.7765 17.219 24.4297 16.8562C24.0829 16.4934 23.6349 16.3148 23.1875 16.2117H23.1855C22.7193 16.1043 22.2169 16.0121 21.0098 16.0007C19.4718 15.9864 18.4701 16.0341 17.5801 16.4304L17.5703 16.4363L17.5625 16.4402C17.2108 16.6054 16.9336 16.7947 16.6894 17.0476C16.5674 17.174 16.4226 17.2661 16.3223 17.6687C16.2721 17.87 16.2666 18.2508 16.4941 18.5593C16.7217 18.8678 17.0405 18.9609 17.2285 18.9851C17.1938 18.9806 17.3764 19.0208 17.5176 19.0906C17.6587 19.1604 17.7813 19.2608 17.8125 19.3015V19.3035C17.7994 19.2865 17.935 19.6234 17.9707 19.9304C18.0064 20.2375 18 20.4851 18 20.4851L17.998 20.5456L18.0039 20.6062C18.0039 20.6062 18.0653 21.2857 18.0332 21.9871C18.0171 22.3378 17.9728 22.6907 17.9141 22.907C17.911 22.9184 17.9095 22.9144 17.9062 22.9246C17.6559 22.7497 17.0786 22.1404 16.2832 20.8269C15.548 19.6118 14.8594 17.4265 14.8594 17.4265L14.8437 17.3777L14.8262 17.3308C14.8262 17.3308 14.6978 16.8426 14.1309 16.4441C13.5995 16.07 13.0937 16.0183 13.0937 16.0183L13.002 16.0007ZM12.7695 18.0007C12.8267 18.0216 12.9463 18.0647 12.9687 18.0749L12.9453 18.0046C12.9453 18.0046 12.9761 18.0753 12.9766 18.0769C12.9768 18.077 12.9804 18.0788 12.9805 18.0789V18.0808H12.9824C12.9322 18.0456 12.9748 18.0805 12.9805 18.0886C13.0081 18.1828 13.6187 20.2862 14.5723 21.8621C15.4409 23.2967 16.0827 24.1004 16.7832 24.5808C17.483 25.0608 18.424 25.0113 18.9023 24.7624C19.5416 24.4305 19.7203 23.8849 19.8437 23.4304C19.9672 22.976 20.0113 22.5149 20.0312 22.0789C20.0693 21.2469 20.0042 20.5663 19.998 20.4988C19.999 20.4612 20.0079 20.1361 19.957 19.698C19.9057 19.2565 19.8137 18.7079 19.4219 18.157C19.8608 18.0918 20.1044 17.9925 20.9902 18.0007C22.1199 18.0114 22.2917 18.0585 22.7363 18.1609C22.9785 18.2167 23.0053 18.263 22.9824 18.239C22.9595 18.215 22.9804 18.199 23.0078 18.3933C23.0626 18.7818 23 19.7782 23 21.2898C23 21.7159 22.9589 22.3168 23.0293 22.946C23.0997 23.5749 23.2962 24.3796 24.0566 24.8503C24.4899 25.1185 25.3176 25.2107 26.0977 24.7761C26.8777 24.3415 27.6782 23.5079 28.6641 21.907C29.6378 20.3285 30.2202 18.2533 30.2832 18.0339C30.2832 18.0339 30.2943 18.0267 30.3008 18.0222C30.3184 18.0231 30.296 18.0261 30.3242 18.0261C30.6946 18.0261 33.8551 18.0007 34.5312 18.0007C34.7173 18.0007 34.7989 18.0107 34.9375 18.0164C34.8815 18.2323 34.8062 18.4837 34.668 18.8074C34.343 19.5682 33.7853 20.555 32.9785 21.5828C32.2832 22.4682 31.7431 23.1105 31.3301 23.6472C30.917 24.184 30.5926 24.6073 30.457 25.2195C30.3215 25.8316 30.5801 26.5221 30.9336 26.9597C31.2871 27.3974 31.7245 27.7659 32.3086 28.2839C34.5087 30.2372 34.8696 30.8284 34.9043 30.8835V30.8855C34.9414 30.9444 34.9174 30.8852 34.9316 30.9148C34.8069 30.9537 34.6584 30.9977 34.6445 31.0007H30.5976H30.5918C30.5918 31.0007 29.8475 30.9763 29.2949 30.6101L29.293 30.6081H29.291C28.7065 30.2253 28 29.5687 27.2734 29.0046C26.9102 28.7226 26.5403 28.4583 26.1113 28.2644C25.6823 28.0705 25.1386 27.933 24.5664 28.1042C23.7381 28.3521 23.2785 29.1404 23.1309 29.7663C23.0249 30.2157 23.0405 30.6065 23.0371 30.9988C23.0086 31.0003 23.0333 31.0007 23 31.0007H21.7129C19.6804 31.0007 17.5659 30.3803 15.2852 27.9968C12.32 24.9004 9.67446 18.9123 9.27734 18.0027L12.7695 18.0007ZM30.2129 18.0085C30.1947 18.0126 30.2467 18.0165 30.2891 18.0203C30.2833 18.0234 30.2895 18.0175 30.2812 18.0222C30.2804 18.0055 30.2373 18.0031 30.2129 18.0085Z" fill="#FFF5F5"/>
</svg>
