<svg width="44" height="44" viewBox="0 0 44 44" fill="none" xmlns="http://www.w3.org/2000/svg">
<path d="M21.999 0C9.86059 0 -0.000976562 9.86156 -0.000976562 22C-0.000976562 33.0191 8.12656 42.1384 18.7119 43.7285L19.8604 43.9023V26.5664H14.6631V23.0469H19.8604V18.373C19.8604 15.495 20.551 13.5994 21.6943 12.4102C22.8377 11.2209 24.527 10.6211 26.8779 10.6211C28.7577 10.6211 29.489 10.735 30.1846 10.8203V13.7012H27.7373C26.3487 13.7012 25.2095 14.4759 24.6182 15.5078C24.0269 16.5397 23.8428 17.7718 23.8428 19.0273V23.0449H29.9658L29.4209 26.5645H23.8428V43.9297L24.9775 43.7754C35.7134 42.3194 43.999 33.1268 43.999 22C43.999 9.86156 34.1375 0 21.999 0ZM21.999 2C33.0566 2 41.999 10.9424 41.999 22C41.999 31.7298 35.0348 39.7318 25.8428 41.5332V28.5645H31.1357L32.2979 21.0449H25.8428V19.0273C25.8428 17.9899 26.0326 17.0603 26.3525 16.502C26.6725 15.9436 26.9809 15.7012 27.7373 15.7012H32.1846V9.00977L31.3174 8.89258C30.7176 8.81142 29.3482 8.62109 26.8779 8.62109C24.1748 8.62109 21.8546 9.35745 20.2529 11.0234C18.6513 12.6894 17.8604 15.1701 17.8604 18.373V21.0469H12.6631V28.5664H17.8604V41.4707C8.81602 39.5548 1.99902 31.6244 1.99902 22C1.99902 10.9424 10.9415 2 21.999 2Z" fill="white"/>
</svg>
