<svg width="24" height="24" viewBox="0 0 24 24" fill="none" xmlns="http://www.w3.org/2000/svg">
<path d="M12 8C10.8954 8 10 8.89543 10 10C10 11.1046 10.8954 12 12 12C13.1046 12 14 11.1046 14 10C14 8.89543 13.1046 8 12 8Z" fill="#2E3A59"/>
<path fill-rule="evenodd" clip-rule="evenodd" d="M8.5 17.469C9.56619 18.7415 10.7369 19.9226 12 21C13.2631 19.9226 14.4338 18.7415 15.5 17.469C17.1 15.558 19 12.712 19 9.99999C19.0059 8.14238 18.2685 6.3596 16.952 5.04899C14.9501 3.04523 11.9379 2.44539 9.32107 3.52939C6.70425 4.61338 4.99858 7.16754 5 9.99999C5 12.712 6.9 15.558 8.5 17.469ZM7 9.99999C7.00331 7.23994 9.23995 5.0033 12 4.99999C14.7601 5.0033 16.9967 7.23994 17 9.99999C17 11.165 16.473 13.184 13.966 16.189C13.3472 16.9259 12.691 17.6304 12 18.3C11.309 17.6297 10.6531 16.924 10.035 16.186C7.527 13.185 7 11.166 7 9.99999Z" fill="#2E3A59"/>
</svg>
